<svg id="visual" viewBox="0 0 450 900" width="450" height="900" xmlns="http://www.w3.org/2000/svg" xmlns:xlink="http://www.w3.org/1999/xlink" version="1.1"><rect x="0" y="0" width="450" height="900" fill="#FFFFFF"></rect><defs><linearGradient id="grad1_0" x1="0%" y1="0%" x2="100%" y2="100%"><stop offset="30%" stop-color="#ffffff" stop-opacity="1"></stop><stop offset="70%" stop-color="#ffffff" stop-opacity="1"></stop></linearGradient></defs><defs><linearGradient id="grad2_0" x1="0%" y1="0%" x2="100%" y2="100%"><stop offset="30%" stop-color="#ffffff" stop-opacity="1"></stop><stop offset="70%" stop-color="#ffffff" stop-opacity="1"></stop></linearGradient></defs><g transform="translate(450, 0)"><path d="M0 315C-36.3 315.4 -72.7 315.9 -96.4 296.7C-120.1 277.6 -131.3 238.9 -160.5 220.9C-189.7 202.9 -237 205.6 -254.8 185.2C-272.7 164.7 -261.2 121.2 -266.3 86.5C-271.4 51.8 -293.2 25.9 -315 0L0 0Z" fill="#4FACF755"></path></g><g transform="translate(0, 900)"><path d="M0 -315C28.3 -290.5 56.6 -266 81 -249.2C105.3 -232.4 125.7 -223.4 157.5 -216.8C189.4 -210.3 232.7 -206.2 254.8 -185.2C277 -164.1 277.9 -126.1 284.4 -92.4C290.9 -58.7 302.9 -29.4 315 0L0 0Z" fill="#4FACF755"></path></g></svg>