<svg id="visual" viewBox="0 0 900 600" width="900" height="600" xmlns="http://www.w3.org/2000/svg" xmlns:xlink="http://www.w3.org/1999/xlink" version="1.1"><rect x="0" y="0" width="900" height="600" fill="#ffffff"></rect><defs><linearGradient id="grad1_0" x1="33.3%" y1="0%" x2="100%" y2="100%"><stop offset="20%" stop-color="#ffffff" stop-opacity="1"></stop><stop offset="80%" stop-color="#ffffff" stop-opacity="1"></stop></linearGradient></defs><defs><linearGradient id="grad2_0" x1="0%" y1="0%" x2="66.7%" y2="100%"><stop offset="20%" stop-color="#ffffff" stop-opacity="1"></stop><stop offset="80%" stop-color="#ffffff" stop-opacity="1"></stop></linearGradient></defs><g transform="translate(900, 0)"><path d="M0 405.6C-41.3 390.1 -82.6 374.5 -114.3 351.9C-146 329.3 -168.1 299.6 -205.7 283.2C-243.3 266.7 -296.5 263.4 -328.2 238.4C-359.9 213.4 -370.1 166.7 -379.5 123.3C-388.8 79.9 -397.2 40 -405.6 0L0 0Z" fill="#99d1ff77"></path></g><g transform="translate(0, 600)"><path d="M0 -405.6C40.2 -388.1 80.5 -370.6 114.3 -351.9C148.2 -333.2 175.8 -313.3 216.3 -297.7C256.9 -282.2 310.4 -270.9 328.2 -238.4C345.9 -205.9 327.8 -152.1 334.8 -108.8C341.7 -65.5 373.7 -32.7 405.6 0L0 0Z" fill="#99d1ff77"></path></g></svg>